<svg width="50" height="50" viewBox="0 0 50 50" fill="none" xmlns="http://www.w3.org/2000/svg">
<path d="M49.2209 0.30692C49.8347 0.753348 50.0858 1.34859 49.9742 2.09263L42.8315 44.9498C42.7385 45.4892 42.4409 45.9077 41.9387 46.2054C41.6783 46.3542 41.39 46.4286 41.0737 46.4286C40.8691 46.4286 40.6459 46.3821 40.4041 46.2891L27.7648 41.1272L21.0127 49.3583C20.6779 49.7861 20.2222 50 19.6456 50C19.4038 50 19.1992 49.9628 19.0318 49.8884C18.6783 49.7582 18.3947 49.5396 18.1808 49.2327C17.9669 48.9258 17.8599 48.5863 17.8599 48.2143V38.4766L41.9666 8.92857L12.1401 34.7377L1.11915 30.2176C0.430919 29.9572 0.0589026 29.4457 0.00310014 28.683C-0.0341015 27.939 0.263512 27.3903 0.89594 27.0368L47.3236 0.251116C47.6026 0.0837054 47.9002 0 48.2165 0C48.5885 0 48.9233 0.102307 49.2209 0.30692Z" fill="#EEEEEE"/>
</svg>
