<svg width="34" height="43" viewBox="0 0 34 43" fill="none" xmlns="http://www.w3.org/2000/svg">
<path d="M2.93752 37.625H31.0625C31.6563 37.6252 32.228 37.8508 32.6619 38.2562C33.0958 38.6616 33.3596 39.2166 33.4001 39.809C33.4406 40.4014 33.2547 40.9872 32.8799 41.4478C32.5052 41.9085 31.9695 42.2097 31.3813 42.2906L31.0625 42.3125H2.93752C2.34369 42.3123 1.77208 42.0867 1.33817 41.6813C0.90426 41.2759 0.640412 40.7209 0.599937 40.1285C0.559462 39.5361 0.745378 38.9503 1.12012 38.4897C1.49486 38.029 2.03049 37.7278 2.61877 37.6469L2.93752 37.625H31.0625H2.93752ZM16.6813 0.146875L17 0.125C17.5664 0.125024 18.1136 0.330134 18.5404 0.702397C18.9673 1.07466 19.2449 1.58889 19.3219 2.15L19.3438 2.46875V26.4937L26.3906 19.45C26.7881 19.0527 27.315 18.8114 27.8754 18.7701C28.4358 18.7288 28.9924 18.8903 29.4438 19.225L29.7063 19.45C30.1035 19.8474 30.3448 20.3743 30.3861 20.9348C30.4274 21.4952 30.266 22.0518 29.9313 22.5031L29.7063 22.7656L18.6563 33.8125C18.2594 34.2094 17.7333 34.4508 17.1736 34.4926C16.6139 34.5345 16.0577 34.3741 15.6063 34.0406L15.3438 33.8125L4.29377 22.7656C3.87441 22.3474 3.62893 21.786 3.60668 21.1941C3.58442 20.6023 3.78705 20.024 4.17381 19.5755C4.56057 19.127 5.10279 18.8415 5.69145 18.7765C6.28011 18.7115 6.87156 18.8717 7.34689 19.225L7.60939 19.45L14.6563 26.5V2.46875C14.6563 1.90238 14.8614 1.35518 15.2337 0.928342C15.6059 0.501502 16.1202 0.223901 16.6813 0.146875L17 0.125L16.6813 0.146875Z" fill="#EEEEEE"/>
</svg>
