<svg width="50" height="50" viewBox="0 0 50 50" fill="none" xmlns="http://www.w3.org/2000/svg">
<path d="M10.3812 14.9937C12.8987 14.9937 14.9395 12.9529 14.9395 10.4354C14.9395 7.91791 12.8987 5.87708 10.3812 5.87708C7.86371 5.87708 5.82288 7.91791 5.82288 10.4354C5.82288 12.9529 7.86371 14.9937 10.3812 14.9937Z" fill="#EEEEEE"/>
<path d="M19.2437 18.4479V43.7375H27.0958V31.2312C27.0958 27.9312 27.7166 24.7354 31.8083 24.7354C35.8437 24.7354 35.8937 28.5083 35.8937 31.4396V43.7396H43.75V29.8708C43.75 23.0583 42.2833 17.8229 34.3208 17.8229C30.4979 17.8229 27.9354 19.9208 26.8875 21.9062H26.7812V18.4479H19.2437V18.4479ZM6.44788 18.4479H14.3125V43.7375H6.44788V18.4479Z" fill="#EEEEEE"/>
</svg>
