<?xml version="1.0" encoding="UTF-8" standalone="no" ?>
<!DOCTYPE svg PUBLIC "-//W3C//DTD SVG 1.1//EN" "http://www.w3.org/Graphics/SVG/1.1/DTD/svg11.dtd">
<svg xmlns="http://www.w3.org/2000/svg" xmlns:xlink="http://www.w3.org/1999/xlink" version="1.1" width="1080" height="1080" viewBox="0 0 1080 1080" xml:space="preserve">
<desc>Created with Fabric.js 4.2.0</desc>
<defs>
</defs>
<g transform="matrix(1 0 0 1 540 540)" id="00ee885e-f025-4324-ba69-b1c2f5725ab4"  >
<rect style="stroke: none; stroke-width: 1; stroke-dasharray: none; stroke-linecap: butt; stroke-dashoffset: 0; stroke-linejoin: miter; stroke-miterlimit: 4; fill: rgb(255,255,255); fill-rule: nonzero; opacity: 1;" vector-effect="non-scaling-stroke"  x="-540" y="-540" rx="0" ry="0" width="1080" height="1080" />
</g>
<g transform="matrix(1 0 0 1 540 540)" id="232f4eb3-5572-4007-ab34-03b181721800"  >
</g>
<g transform="matrix(0.68 0 0 0.68 569.38 540)" id="295b9b95-5566-4d50-95f9-a493fe1ea017"  >
<path style="stroke: rgb(0,0,0); stroke-width: 0; stroke-dasharray: none; stroke-linecap: butt; stroke-dashoffset: 0; stroke-linejoin: miter; stroke-miterlimit: 4; fill: rgb(0,0,0); fill-rule: nonzero; opacity: 1;" vector-effect="non-scaling-stroke"  transform=" translate(-319.99, -256.01)" d="M 414.8 40.79 L 286.8 488.8 C 281.9 505.8 264.2 515.6 247.2 510.8 C 230.2 505.9 220.4 488.2 225.2 471.2 L 353.2 23.21 C 358.1 6.216 375.8 -3.624 392.8 1.232 C 409.8 6.087 419.6 23.8 414.8 40.79 L 414.8 40.79 z M 518.6 121.4 L 630.6 233.4 C 643.1 245.9 643.1 266.1 630.6 278.6 L 518.6 390.6 C 506.1 403.1 485.9 403.1 473.4 390.6 C 460.9 378.1 460.9 357.9 473.4 345.4 L 562.7 256 L 473.4 166.6 C 460.9 154.1 460.9 133.9 473.4 121.4 C 485.9 108.9 506.1 108.9 518.6 121.4 L 518.6 121.4 z M 166.6 166.6 L 77.25 256 L 166.6 345.4 C 179.1 357.9 179.1 378.1 166.6 390.6 C 154.1 403.1 133.9 403.1 121.4 390.6 L 9.372 278.6 C -3.124 266.1 -3.124 245.9 9.372 233.4 L 121.4 121.4 C 133.9 108.9 154.1 108.9 166.6 121.4 C 179.1 133.9 179.1 154.1 166.6 166.6 L 166.6 166.6 z" stroke-linecap="round" />
</g>
<g transform="matrix(0.67 0 0 0.6 571.01 540)"  >
<path style="stroke: rgb(0,0,0); stroke-width: 0; stroke-dasharray: none; stroke-linecap: butt; stroke-dashoffset: 0; stroke-linejoin: miter; stroke-miterlimit: 4; fill: rgb(255,255,255); fill-rule: nonzero; opacity: 1;" vector-effect="non-scaling-stroke"  transform=" translate(-319.99, -256.01)" d="M 414.8 40.79 L 286.8 488.8 C 281.9 505.8 264.2 515.6 247.2 510.8 C 230.2 505.9 220.4 488.2 225.2 471.2 L 353.2 23.21 C 358.1 6.216 375.8 -3.624 392.8 1.232 C 409.8 6.087 419.6 23.8 414.8 40.79 L 414.8 40.79 z M 518.6 121.4 L 630.6 233.4 C 643.1 245.9 643.1 266.1 630.6 278.6 L 518.6 390.6 C 506.1 403.1 485.9 403.1 473.4 390.6 C 460.9 378.1 460.9 357.9 473.4 345.4 L 562.7 256 L 473.4 166.6 C 460.9 154.1 460.9 133.9 473.4 121.4 C 485.9 108.9 506.1 108.9 518.6 121.4 L 518.6 121.4 z M 166.6 166.6 L 77.25 256 L 166.6 345.4 C 179.1 357.9 179.1 378.1 166.6 390.6 C 154.1 403.1 133.9 403.1 121.4 390.6 L 9.372 278.6 C -3.124 266.1 -3.124 245.9 9.372 233.4 L 121.4 121.4 C 133.9 108.9 154.1 108.9 166.6 121.4 C 179.1 133.9 179.1 154.1 166.6 166.6 L 166.6 166.6 z" stroke-linecap="round" />
</g>
</svg>